<?xml version="1.0" standalone="no"?>
<svg xmlns:xlink="http://www.w3.org/1999/xlink" id="wave" style="transform:rotate(180deg); transition: 0.3s" viewBox="0 0 1440 490" version="1.1" xmlns="http://www.w3.org/2000/svg"><defs><linearGradient id="sw-gradient-0" x1="0" x2="0" y1="1" y2="0"><stop stop-color="rgba(0, 5.327, 255, 1)" offset="0%"/><stop stop-color="rgba(33.958, 44.678, 75.504, 1)" offset="100%"/></linearGradient></defs><path style="transform:translate(0, 0px); opacity:1" fill="url(#sw-gradient-0)" d="M0,245L48,253.2C96,261,192,278,288,294C384,310,480,327,576,294C672,261,768,180,864,163.3C960,147,1056,196,1152,187.8C1248,180,1344,114,1440,81.7C1536,49,1632,49,1728,89.8C1824,131,1920,212,2016,253.2C2112,294,2208,294,2304,261.3C2400,229,2496,163,2592,138.8C2688,114,2784,131,2880,171.5C2976,212,3072,278,3168,269.5C3264,261,3360,180,3456,122.5C3552,65,3648,33,3744,49C3840,65,3936,131,4032,163.3C4128,196,4224,196,4320,187.8C4416,180,4512,163,4608,171.5C4704,180,4800,212,4896,236.8C4992,261,5088,278,5184,269.5C5280,261,5376,229,5472,187.8C5568,147,5664,98,5760,98C5856,98,5952,147,6048,196C6144,245,6240,294,6336,277.7C6432,261,6528,180,6624,179.7C6720,180,6816,261,6864,302.2L6912,343L6912,490L6864,490C6816,490,6720,490,6624,490C6528,490,6432,490,6336,490C6240,490,6144,490,6048,490C5952,490,5856,490,5760,490C5664,490,5568,490,5472,490C5376,490,5280,490,5184,490C5088,490,4992,490,4896,490C4800,490,4704,490,4608,490C4512,490,4416,490,4320,490C4224,490,4128,490,4032,490C3936,490,3840,490,3744,490C3648,490,3552,490,3456,490C3360,490,3264,490,3168,490C3072,490,2976,490,2880,490C2784,490,2688,490,2592,490C2496,490,2400,490,2304,490C2208,490,2112,490,2016,490C1920,490,1824,490,1728,490C1632,490,1536,490,1440,490C1344,490,1248,490,1152,490C1056,490,960,490,864,490C768,490,672,490,576,490C480,490,384,490,288,490C192,490,96,490,48,490L0,490Z"/><defs><linearGradient id="sw-gradient-1" x1="0" x2="0" y1="1" y2="0"><stop stop-color="rgba(23.051, 52.962, 180.236, 1)" offset="0%"/><stop stop-color="rgba(32.375, 84.043, 232.602, 0.67)" offset="100%"/></linearGradient></defs><path style="transform:translate(0, 50px); opacity:0.9" fill="url(#sw-gradient-1)" d="M0,49L48,40.8C96,33,192,16,288,73.5C384,131,480,261,576,261.3C672,261,768,131,864,89.8C960,49,1056,98,1152,155.2C1248,212,1344,278,1440,318.5C1536,359,1632,376,1728,383.8C1824,392,1920,392,2016,375.7C2112,359,2208,327,2304,310.3C2400,294,2496,294,2592,269.5C2688,245,2784,196,2880,171.5C2976,147,3072,147,3168,163.3C3264,180,3360,212,3456,228.7C3552,245,3648,245,3744,236.8C3840,229,3936,212,4032,196C4128,180,4224,163,4320,204.2C4416,245,4512,343,4608,367.5C4704,392,4800,343,4896,318.5C4992,294,5088,294,5184,310.3C5280,327,5376,359,5472,318.5C5568,278,5664,163,5760,106.2C5856,49,5952,49,6048,49C6144,49,6240,49,6336,73.5C6432,98,6528,147,6624,187.8C6720,229,6816,261,6864,277.7L6912,294L6912,490L6864,490C6816,490,6720,490,6624,490C6528,490,6432,490,6336,490C6240,490,6144,490,6048,490C5952,490,5856,490,5760,490C5664,490,5568,490,5472,490C5376,490,5280,490,5184,490C5088,490,4992,490,4896,490C4800,490,4704,490,4608,490C4512,490,4416,490,4320,490C4224,490,4128,490,4032,490C3936,490,3840,490,3744,490C3648,490,3552,490,3456,490C3360,490,3264,490,3168,490C3072,490,2976,490,2880,490C2784,490,2688,490,2592,490C2496,490,2400,490,2304,490C2208,490,2112,490,2016,490C1920,490,1824,490,1728,490C1632,490,1536,490,1440,490C1344,490,1248,490,1152,490C1056,490,960,490,864,490C768,490,672,490,576,490C480,490,384,490,288,490C192,490,96,490,48,490L0,490Z"/></svg>